<?xml version="1.0" standalone="no"?>
<!DOCTYPE svg PUBLIC "-//W3C//DTD SVG 20010904//EN"
 "http://www.w3.org/TR/2001/REC-SVG-20010904/DTD/svg10.dtd">
<svg version="1.0" xmlns="http://www.w3.org/2000/svg"
 width="300.000000pt" height="300.000000pt" viewBox="0 0 300.000000 300.000000"
 preserveAspectRatio="xMidYMid meet">
<metadata>
Created by potrace 1.11, written by Peter Selinger 2001-2013
</metadata>
<g transform="translate(0.000000,300.000000) scale(0.100000,-0.100000)"
fill="#000000" stroke="none">
<path d="M978 2390 c-10 -6 -19 -28 -22 -53 -8 -61 -13 -227 -6 -227 3 0 6
-18 6 -40 1 -22 -3 -40 -8 -40 -5 0 -7 -4 -4 -9 3 -5 -19 -32 -50 -60 -56 -51
-144 -117 -144 -107 0 3 -10 -5 -23 -17 -13 -12 -33 -29 -45 -37 -12 -8 -22
-19 -22 -24 0 -5 -9 -17 -20 -26 -11 -10 -31 -33 -43 -51 -20 -30 -29 -34 -67
-35 -25 -1 -53 2 -62 7 -11 6 -18 6 -18 0 0 -5 6 -12 13 -14 6 -3 7 -6 1 -6
-6 -1 -9 -23 -7 -58 3 -74 9 -86 33 -80 25 6 25 10 -6 -98 -56 -196 -62 -223
-69 -305 -4 -47 -8 -94 -9 -105 -1 -11 0 -24 3 -30 3 -5 7 -28 8 -50 1 -22 4
-53 7 -70 25 -152 25 -365 1 -405 -3 -5 -6 -25 -7 -45 -1 -19 -4 -35 -8 -35
-9 0 -6 -292 4 -308 6 -9 246 -12 1100 -12 l1092 0 -9 72 c-5 43 -6 84 0 102
12 42 9 263 -5 361 -6 44 -13 118 -16 165 -3 47 -8 96 -12 110 -3 14 -7 34 -9
45 -2 11 -4 20 -5 20 -2 0 -6 18 -14 63 -4 19 -26 73 -51 121 -24 48 -51 117
-60 152 -9 34 -23 76 -31 91 -8 15 -12 28 -9 28 3 0 1 8 -4 18 -11 22 -21 63
-26 107 -1 17 -3 30 -5 30 -1 0 -3 14 -5 30 -2 17 -9 67 -16 112 -10 66 -10
100 0 180 27 214 31 280 19 313 -6 14 -12 34 -14 45 -6 28 -53 122 -67 132
-38 29 -159 -18 -240 -92 -21 -19 -43 -35 -48 -35 -6 0 -7 -4 -4 -10 3 -5 2
-10 -4 -10 -5 0 -40 -29 -78 -65 -37 -35 -75 -65 -85 -65 -9 0 -18 -5 -20 -11
-7 -22 -92 -25 -268 -10 -132 11 -167 18 -187 34 -7 5 -13 7 -13 3 0 -9 -59
22 -80 43 -17 16 -53 78 -48 83 2 2 -7 17 -18 33 -12 17 -24 39 -28 50 -4 11
-22 38 -41 59 -27 30 -43 40 -72 42 -21 2 -46 -1 -55 -6z"/>
</g>
</svg>
